<svg xmlns="http://www.w3.org/2000/svg" width="1612.35" height="1382.99" viewBox="0 0 1612.35 1382.99"><title>shutterstock_laptop</title><polygon points="1462.67 898.99 1528.21 861.14 1009.58 559.84 941.92 597.98 1462.67 898.99" fill="#ccc" fill-rule="evenodd"/><ellipse cx="197.73" cy="1178.09" rx="163.64" ry="107.02" fill="#ccc"/><path d="M488,1341.57c46.83,0,85-25,85-55.6s-38.19-55.6-85-55.6-85,25-85,55.6S441.13,1341.57,488,1341.57Z" transform="translate(-0.48 3.27)" fill="#ccc" fill-rule="evenodd"/><path d="M270.91,971.51,858.92,632c12.54-7.24,26-11.56,45,.74,83.82,48.39,359.94,203.22,441.76,254.92,11.28,6.7,6.55,19.76-4.92,25.29L755.16,1251.09c-20.33,11.74-47.76,19.37-67.77,7.82L264.68,1014.86C250.58,1006.72,242.11,985.42,270.91,971.51Z" transform="translate(-0.48 3.27)" fill="#ccc" fill-rule="evenodd"/><polygon points="1274.78 1272.46 1556.89 1109.58 1375.5 1002.98 1114.51 1152.82 1091.28 1166.16 1274.78 1272.46" fill="#ccc" fill-rule="evenodd"/><path d="M322.51,1106.09a3.11,3.11,0,0,1-3.82-4.91l28-21.78a3.12,3.12,0,0,1,3.69-.09L851.72,1373l718.91-456.64-64-36.34a3.1,3.1,0,0,1,3.06-5.39L1578,913.41a3.06,3.06,0,0,1,1.27,1.13,3.1,3.1,0,0,1-1,4.28L853.46,1379.25a3.12,3.12,0,0,1-3.23,0L348.85,1085.6Z" transform="translate(-0.48 3.27)" fill="#f0b8d3" fill-rule="evenodd"/><path d="M341.67,1143.7c.37,46.14-64.12,84.06-144,84.71-60.71.49-112.85-20.68-134.57-51.11l.18-.08h0L197,1144.87l-62.57-75a235.62,235.62,0,0,1,61.89-8.54C276.21,1060.68,341.29,1097.56,341.67,1143.7Z" transform="translate(-0.48 3.27)" fill="#118a21" fill-rule="evenodd"/><path d="M341.67,1143.7a50,50,0,0,1-2,14.15l-142.74-13,67.6-74.25-.79-.23c46.07,13.63,77.63,41.23,77.89,73.31Zm-86.26-75.59h0l.39.1Z" transform="translate(-0.48 3.27)" fill="#f2bc0c" fill-rule="evenodd"/><path d="M341.75,1184.68c-5.29,93.32-213.95,107.6-277.61,30.26-.62-1.11-1.21-2.25-1.79-3.4l.9-34.32v0c51.72,74,267.28,66.32,278.42-33.5C343.8,1155.46,343,1172.86,341.75,1184.68Z" transform="translate(-0.48 3.27)" fill="#046311" fill-rule="evenodd"/><path d="M341.75,1184.68a61.84,61.84,0,0,1-1.07,8.39l-1-35.22-.92-.72a68.17,68.17,0,0,0,2.88-13.43C343.8,1155.46,343,1172.86,341.75,1184.68Z" transform="translate(-0.48 3.27)" fill="#d6a400" fill-rule="evenodd"/><path d="M134.4,1069.86l62.57,75,67.6-74.25a233,233,0,0,0-68.28-9.3A235.62,235.62,0,0,0,134.4,1069.86Z" transform="translate(-0.48 3.27)" fill="#ed821b" fill-rule="evenodd"/><path d="M63.25,1123.35,197,1091l-62.58-75c-48.8,13.8-82.39,42.85-82.12,76.18A59.85,59.85,0,0,0,63.25,1123.35Z" transform="translate(-0.48 3.27)" fill="#d14176" fill-rule="evenodd"/><path d="M62.35,1155.13,197,1122.81l0-31.81L63.3,1123.34c-4.17-4.47-10.38-22.74-11-33.71C50.64,1114.31,53.66,1137.52,62.35,1155.13Z" transform="translate(-0.48 3.27)" fill="#bd245c" fill-rule="evenodd"/><path d="M63.3,1123.34c-4.17-4.47-10.38-22.74-11-33.71-1.63,24.68,1.39,47.89,10.08,65.5Z" transform="translate(-0.48 3.27)" fill="#e36291" fill-rule="evenodd"/><path d="M1339.28,896.78,753.64,1234.89c-20.33,11.74-47.76,19.38-67.77,7.82L263.16,998.66c-18.64-10.75-23.11-35.11-18.91-52.12h0c0,.23,0,.47,0,.7v.09c0,.22,0,.45,0,.68v.08c0,.22,0,.44,0,.66v.12c0,.22,0,.44.07.66v.07c0,.23.06.45.1.67v.1c0,.21.07.43.12.64l0,.1a19.9,19.9,0,0,0,.77,2.77l0,.1c.07.2.15.4.23.61l.05.11a5.89,5.89,0,0,0,.24.58l0,.12c.09.2.18.41.28.61l0,0,.31.62,0,.09.32.58,0,.09c.11.2.22.39.34.58l0,.06.38.61h0c.13.19.26.39.4.58l0,.05,0,0,.39.55,0,.05c.14.19.27.37.42.55l.06.08c.13.17.27.34.41.5l.09.12.44.51.05,0c.15.18.3.34.45.51l.09.1.45.47.09.08c.52.53,1.06,1,1.61,1.51l0,0,.55.45.06.06.56.44,0,0,.54.41.13.09.52.37.09.06.55.37.09.06.55.35,0,0,.06,0c.19.12.39.24.6.35,74.35,42.94,348.35,201.12,422.7,244,20,11.55,47.44,3.92,67.77-7.82q292.83-169,585.64-338.12c7.83-3.77,12.52-11.06,11.11-17.44C1351.26,861.82,1357.41,888,1339.28,896.78Z" transform="translate(-0.48 3.27)" fill="#201d4f" fill-rule="evenodd"/><path d="M856,33.89c3.29,177.4,6.35,342.73,9.65,520.64.2,11.1-2,21.74-18.1,29.93C780.73,622.7,331.3,889.31,262.9,925c-9.13,5.08-16.48-3-15.91-12.7-3.32-179.4-6.29-339.66-9.61-518.53-.33-18,5-39.25,21-48.37,61.13-35,508.43-296.81,569.56-331.78C839.15,7.17,857.47,9.4,856,33.89Z" transform="translate(-0.48 3.27)" fill="#201d4f" fill-rule="evenodd"/><polygon points="834.66 73.54 261.49 406.97 267.4 888.4 839.77 553.83 834.66 73.54" fill="#93c7fa" fill-rule="evenodd"/><path d="M224.94,910.2a11.84,11.84,0,0,1-2.26-3h0a16.27,16.27,0,0,1-1.82-8.73c-3.32-179.4-6.3-339.66-9.62-518.53-.33-18,5-39.24,21-48.37,61.13-35,508.43-296.81,569.57-331.78A22.25,22.25,0,0,1,816.53-3h0a17.18,17.18,0,0,1,1.88.46c6.82,1.88,20.35,7.24,29.37,15.22h0l-.49-.27,0,0-.49-.25-.06,0-.48-.22-.08,0-.49-.2-.06,0-.51-.19-.07,0-.5-.16-.08,0a15.9,15.9,0,0,0-2.25-.51l-.08,0-.52-.07h-.1l-.5-.05h-.1l-.54,0h-.05l-.56,0h-1.29l-.58,0h0l-.56,0h-.09a5,5,0,0,0-.54.06h-.06l-.54.08H836l-.52.08-.12,0-.53.1h-.05l-.54.12-.1,0-.51.13-.1,0c-.57.15-1.13.33-1.69.52h0l-.53.2-.06,0-.53.21h0l-.5.22-.12,0-.46.21-.07,0L829,13l-.08,0c-.15.08-.31.15-.46.24h0l-.05,0-.49.27L825,15.24l-1,.55-1.88,1.08-2,1.15-.83.48c-56.44,32.29-504.56,294.58-561,326.88-16,9.12-21.29,30.37-21,48.37l.16,8.37.15,8.34q4.65,250.91,9.3,501.82c-.39,6.66,2.92,12.51,8,13.94C242.12,925.72,230.19,916.16,224.94,910.2Z" transform="translate(-0.48 3.27)" fill="#8b9dcf" fill-rule="evenodd"/><path d="M515.54,311.35c10-4.06,13.43,11.31,0,17.67-52,30.05-159.65,90.79-211.69,120.84-8.54,3.7-13.9-8.64-1.1-16.53C354.8,403.28,463.5,341.4,515.54,311.35Z" transform="translate(-0.48 3.27)" fill="#fff" fill-rule="evenodd"/><path d="M263.45,924.22l588-339.49c12.53-7.24,26-11.56,45,.74,83.82,48.39,360,203.22,441.77,254.93,11.28,6.69,6.54,19.75-4.92,25.28L747.69,1203.8c-20.33,11.74-47.76,19.37-67.77,7.82l-422.7-244C243.12,959.43,234.65,938.13,263.45,924.22Z" transform="translate(-0.48 3.27)" fill="#ced5f2" fill-rule="evenodd"/><polygon points="1114.04 950.73 1113.47 986.24 1075.74 1008.02 1073.8 1006.89 1074.24 971.51 1112.38 949.78 1114.04 950.73" fill="#e6e6e6" fill-rule="evenodd"/><path d="M558.06,1096.11l35.43,20.46,43.08-24.22-36-21-42.48,24.75Zm89.49-9.94-36.22-21.09,42.7-24.87,37,21.53-43.44,24.43Zm54.42-30.6,40.87-23-37.86-22-40.16,23.4L702,1055.57Zm51.85-29.16-38-22.16,36-21,38.68,22.53-36.66,20.61Zm47.64-26.79L973.4,902.93l-41.83-24.36L762.59,977l38.87,22.63ZM984.38,896.76l-42-24.48L978.93,851l42.66,24.85-37.21,20.93Zm48.19-27.1,41.62-23.4-43.57-25.38-40.9,23.82,42.85,25Zm52.6-29.58-43.76-25.49,38.42-22.37,44.44,25.88-39.1,22Zm50.08-28.16,39.41-22.16L1129,763.59l-38.36,22.34Z" transform="translate(-0.48 3.27)" fill="#b1bae0" fill-rule="evenodd"/><path d="M501.71,1063.58l45.51,26.27,78-45.43L579.91,1018l-78.2,45.54ZM636,1038.14l-45.31-26.39,40.45-23.56,45.3,26.39L636,1038.14Zm51.24-29.84,40.44-23.56-45.3-26.39-40.45,23.56,45.31,26.39Zm51.23-29.85-45.3-26.38,40.44-23.56,45.31,26.39-40.45,23.55Zm51.24-29.84,40.45-23.55-45.31-26.39-40.44,23.56,45.3,26.38ZM841,918.77l-45.3-26.39,40.44-23.55,45.31,26.38L841,918.77Zm51.24-29.84,40.44-23.56L887.34,839l-40.45,23.56,45.31,26.39Zm51.23-29.84-45.3-26.39,40.45-23.56,45.3,26.39-40.45,23.56Zm51.24-29.85,40.45-23.55L989.81,779.3l-40.44,23.56,45.3,26.38Zm51.24-29.84L1000.61,773l30.84-18,45.31,26.39-30.85,18Zm41.64-24.25,30.55-17.79-45.69-26.17-30.17,17.57Z" transform="translate(-0.48 3.27)" fill="#b1bae0" fill-rule="evenodd"/><path d="M445.37,1031.05l45.5,26.27,53.6-31.21-45.3-26.39-53.8,31.33Zm109.89-11.23L510,993.44l40.44-23.56,45.31,26.39-40.45,23.55ZM606.5,990,647,966.42,601.64,940,561.2,963.6,606.5,990Zm51.24-29.84-45.31-26.39,40.45-23.55,45.3,26.38-40.44,23.56ZM709,930.3l40.45-23.56-45.3-26.38-40.45,23.55L709,930.3Zm51.24-29.84-45.3-26.39,40.44-23.56,45.31,26.39-40.45,23.56Zm51.24-29.85,40.45-23.55-45.31-26.39-40.44,23.56,45.3,26.38Zm51.24-29.84-45.31-26.38,40.45-23.56,45.3,26.39-40.44,23.55Zm51.24-29.84,40.44-23.56L909.07,761l-40.45,23.55,45.31,26.39Zm51.23-29.84-45.3-26.39,33.73-19.64,45.31,26.38-33.74,19.65Zm44.53-25.93,51.84-30.2-45.68-26.17-51.47,30Z" transform="translate(-0.48 3.27)" fill="#b1bae0" fill-rule="evenodd"/><path d="M389,998.52l45.5,26.27,32.74-19.06L422,979.34,389,998.52Zm89,.92-45.3-26.38L473.2,949.5l45.31,26.39-40.45,23.55ZM529.3,969.6,569.75,946l-45.31-26.38L484,943.21l45.3,26.39Zm51.24-29.84-45.31-26.39,40.45-23.55L621,916.2l-40.44,23.56Zm51.24-29.84,40.44-23.56L626.92,860l-40.45,23.56,45.31,26.39ZM683,880.08l-45.3-26.39,40.45-23.56,45.3,26.39L683,880.08Zm51.24-29.85,40.45-23.55-45.31-26.39L689,823.85l45.3,26.38Zm51.24-29.84L740.18,794l40.45-23.55,45.31,26.38-40.45,23.56Zm51.24-29.84L877.17,767l-45.3-26.38-40.45,23.55,45.31,26.39ZM888,760.71l-45.31-26.39L959.29,666.4,1005,692.56Z" transform="translate(-0.48 3.27)" fill="#b1bae0" fill-rule="evenodd"/><path d="M332.69,966l45.5,26.28,56.54-32.93L389.42,933l-56.73,33Zm112.83-12.94-45.31-26.38,40.45-23.56L486,929.5l-40.44,23.55Zm51.24-29.84,40.44-23.55-45.3-26.39-40.45,23.56,45.31,26.38ZM548,893.37,502.69,867l40.44-23.55,45.31,26.38L548,893.37Zm51.24-29.84L639.68,840l-45.31-26.38-40.44,23.55,45.3,26.39Zm51.24-29.84L605.16,807.3l40.45-23.56,45.31,26.39-40.45,23.56Zm51.24-29.85,40.44-23.55-45.3-26.39L656.4,777.46l45.31,26.38ZM752.94,774l-45.3-26.38,40.45-23.56,45.3,26.39L752.94,774Zm51.24-29.84,40.45-23.56-45.31-26.38-40.44,23.55,45.3,26.39Zm51.24-29.84-45.3-26.39L902.72,634l45.69,26.16Z" transform="translate(-0.48 3.27)" fill="#b1bae0" fill-rule="evenodd"/><path d="M873.47,617.25l-29.61,17.09L862.2,645l29.64-17.27-18.37-10.51ZM833,640.6l18.39,10.71-27.84,16.22-18.52-10.79,28-16.14ZM794.21,663,762,681.57l18.71,10.9,32-18.66L794.21,663Zm-43,24.83L770,698.75l-40.45,23.56-18.94-11,40.63-23.45Zm-51.47,29.7L659.11,741l19.16,11.16,40.45-23.56-19-11.06Zm-51.46,29.71,19.21,11.2L627,782l-19.39-11.3,40.63-23.45ZM596.8,777,556.17,800.4l19.63,11.43,40.44-23.55L596.8,777Zm-51.47,29.71L565,818.12l-40.45,23.56L504.7,830.11l40.63-23.45Zm-51.47,29.71-40.62,23.45,20.08,11.7L513.77,848l-19.91-11.59ZM442.4,866.08l20.13,11.72-40.45,23.56-20.31-11.83,40.63-23.45Zm-51.47,29.71L350.3,919.24l20.54,12,40.45-23.56-20.36-11.85Zm-51.47,29.7,20.59,12-38.2,22.25L301,947.7Z" transform="translate(-0.48 3.27)" fill="#b1bae0" fill-rule="evenodd"/><path d="M841.64,993.53,983,911.93c3-1.74,6.25-2.78,10.82.18,13.36,7.71,47,26.68,74,42.21l-156.39,90.77L840.14,1004c-3.39-2-5.42-7.07,1.5-10.42Zm234.94-34.11-69.79,40.51L1035,1016.3l63.81-36.84c2.75-1.33,3.89-4.47,1.18-6.07-5.15-3.26-13.51-8.22-23.41-14Zm-50.4,62L998,1005l-77.78,45.14,21.54,12.44c4.8,2.78,11.4.94,16.29-1.88Z" transform="translate(-0.48 3.27)" fill="#b1bae0" fill-rule="evenodd"/><polygon points="157.79 548.66 31.15 621.78 51.43 670.49 0 695.81 3.48 979.53 161.39 887.24 157.79 548.66" fill="#bce7f5" fill-rule="evenodd"/><path d="M136.81,657.67c9.43-3.85,12.74,10.73,0,16.76-49.37,28.51-38.08,22-87.46,50.48-8.1,3.51-13.18-8.2-1-15.68C97.68,680.72,87.43,686.17,136.81,657.67Z" transform="translate(-0.48 3.27)" fill="#7eaae0" fill-rule="evenodd"/><polygon points="31.15 621.78 0 695.81 51.43 670.49 31.15 621.78" fill="#7fc8e0" fill-rule="evenodd"/><path d="M24.45,737c3.77,0,6.85-3.63,6.85-8.08s-3.08-8.08-6.85-8.08-6.84,3.63-6.84,8.08S20.68,737,24.45,737Z" transform="translate(-0.48 3.27)" fill="#db4b8c" fill-rule="evenodd"/><path d="M136.81,697.33c9.43-3.85,12.74,10.74,0,16.77-49.37,28.51-38.08,22-87.46,50.48-8.1,3.51-13.18-8.2-1-15.68C97.68,720.39,87.43,725.84,136.81,697.33Z" transform="translate(-0.48 3.27)" fill="#7eaae0" fill-rule="evenodd"/><path d="M24.45,776.68c3.77,0,6.85-3.63,6.85-8.08s-3.08-8.08-6.85-8.08-6.84,3.63-6.84,8.08S20.68,776.68,24.45,776.68Z" transform="translate(-0.48 3.27)" fill="#db4b8c" fill-rule="evenodd"/><path d="M136.81,739.33c9.43-3.85,12.74,10.73,0,16.77-49.37,28.51-38.08,22-87.46,50.48-8.1,3.5-13.18-8.2-1-15.69C97.68,762.38,87.43,767.84,136.81,739.33Z" transform="translate(-0.48 3.27)" fill="#7eaae0" fill-rule="evenodd"/><path d="M24.45,818.68c3.77,0,6.85-3.63,6.85-8.08s-3.08-8.08-6.85-8.08-6.84,3.63-6.84,8.08S20.68,818.68,24.45,818.68Z" transform="translate(-0.48 3.27)" fill="#db4b8c" fill-rule="evenodd"/><path d="M136.81,785.22c9.43-3.85,12.74,10.73,0,16.76-49.37,28.51-38.08,22-87.46,50.48-8.1,3.51-13.18-8.2-1-15.68C97.68,808.27,87.43,813.73,136.81,785.22Z" transform="translate(-0.48 3.27)" fill="#7eaae0" fill-rule="evenodd"/><path d="M24.45,864.57c3.77,0,6.85-3.63,6.85-8.08s-3.08-8.08-6.85-8.08-6.84,3.63-6.84,8.08S20.68,864.57,24.45,864.57Z" transform="translate(-0.48 3.27)" fill="#db4b8c" fill-rule="evenodd"/><path d="M136.81,828.05c9.43-3.85,12.74,10.73,0,16.77-49.37,28.51-38.08,22-87.46,50.48-8.1,3.51-13.18-8.2-1-15.69C97.68,851.11,87.43,856.56,136.81,828.05Z" transform="translate(-0.48 3.27)" fill="#7eaae0" fill-rule="evenodd"/><path d="M24.45,907.4c3.77,0,6.85-3.63,6.85-8.08s-3.08-8.08-6.85-8.08-6.84,3.63-6.84,8.08S20.68,907.4,24.45,907.4Z" transform="translate(-0.48 3.27)" fill="#db4b8c" fill-rule="evenodd"/><polygon points="791.5 184.14 546.76 327.86 549.32 514.12 793.47 369.57 791.5 184.14" fill="#fff" fill-rule="evenodd"/><path d="M794.35,373.78,677.46,442.42V605.61l118.29-70-1.4-161.79ZM671,446.24,549.6,517.49l2,162.64L671,609.47Z" transform="translate(-0.48 3.27)" fill="#fff" fill-rule="evenodd"/><polygon points="580.26 603.25 561.57 614.98 562.35 665.92 580.81 653.86 580.26 603.25" fill="#ed821b" fill-rule="evenodd"/><polygon points="603.98 560.47 585.29 572.2 586.07 650.75 604.53 638.7 603.98 560.47" fill="#f2bc0c" fill-rule="evenodd"/><polygon points="627.61 565.91 608.91 577.64 609.69 635.98 628.15 623.92 627.61 565.91" fill="#118a21" fill-rule="evenodd"/><polygon points="651.72 506.61 633.02 518.34 633.8 621.01 652.26 608.95 651.72 506.61" fill="#d14176" fill-rule="evenodd"/><path d="M777.82,480.6c6.45-2.62,8.7,7.33,0,11.45l-59.71,34.46c-5.53,2.4-9-5.59-.71-10.7C751.11,496.34,744.11,500.07,777.82,480.6Z" transform="translate(-0.48 3.27)" fill="#b3b3b3" fill-rule="evenodd"/><path d="M777.82,500.69c6.45-2.63,8.7,7.33,0,11.45L718.11,546.6c-5.53,2.4-9-5.6-.71-10.71C751.11,516.43,744.11,520.15,777.82,500.69Z" transform="translate(-0.48 3.27)" fill="#b3b3b3" fill-rule="evenodd"/><path d="M777.82,521.62c6.45-2.63,8.7,7.33,0,11.45L748,550.28c-5.53,2.4-9-5.6-.7-10.71Z" transform="translate(-0.48 3.27)" fill="#b3b3b3" fill-rule="evenodd"/><path d="M738.42,175.74c4.9,0,8.89-5.72,8.89-12.74s-4-12.75-8.89-12.75S729.53,156,729.53,163,733.53,175.74,738.42,175.74Z" transform="translate(-0.48 3.27)" fill="#fff" fill-rule="evenodd"/><path d="M765.37,159.8c4.9,0,8.9-5.72,8.9-12.74s-4-12.74-8.9-12.74-8.89,5.72-8.89,12.74S760.48,159.8,765.37,159.8Z" transform="translate(-0.48 3.27)" fill="#fff" fill-rule="evenodd"/><path d="M792.47,144.27c4.89,0,8.89-5.72,8.89-12.74s-4-12.74-8.89-12.74-8.9,5.73-8.9,12.74S787.57,144.27,792.47,144.27Z" transform="translate(-0.48 3.27)" fill="#fff" fill-rule="evenodd"/><path d="M522.77,233.75c4.5,0,8.17-5.93,8.17-13.22s-3.67-13.22-8.17-13.22-8.17,5.94-8.17,13.22S518.27,233.75,522.77,233.75Z" transform="translate(-0.48 3.27)" fill="#b3b3b3" fill-rule="evenodd"/><polygon points="299.35 265.73 119.52 371.32 121.4 508.18 127.69 512.18 125.8 375.32 305.63 269.73 299.35 265.73" fill="#c9ac1c" fill-rule="evenodd"/><polygon points="305.63 269.73 125.8 375.32 127.69 512.18 307.08 405.97 305.63 269.73" fill="#edd24c" fill-rule="evenodd"/><polygon points="305.63 269.73 295.66 275.58 214.44 385.98 131.9 371.74 125.8 375.32 125.86 379.96 218.44 395.93 305.71 277.31 305.63 269.73" fill="#fff" fill-rule="evenodd"/><path d="M696.71,257c6.44-2.63,8.7,7.33,0,11.45L637,302.94c-5.53,2.4-9-5.6-.71-10.71C670,272.77,663,276.49,696.71,257Z" transform="translate(-0.48 3.27)" fill="#999" fill-rule="evenodd"/><polygon points="1265.45 1181 1547.56 1018.12 1366.16 911.51 1105.17 1061.36 1081.94 1074.69 1265.45 1181" fill="#e0f6ff" fill-rule="evenodd"/><polygon points="1086.03 1143.94 1081.94 1074.69 1265.45 1181 1547.56 1018.12 1551.64 1087.37 1269.54 1250.25 1086.03 1143.94" fill="#c9efff" fill-rule="evenodd"/><polygon points="1086.02 1143.94 1081.94 1074.69 1265.45 1181 1269.53 1250.25 1086.02 1143.94" fill="#b8e1f2" fill-rule="evenodd"/><polygon points="1117.18 1125.23 1253.68 1200.28 1106.68 1141.17 1117.18 1125.23" fill="#fff" fill-rule="evenodd"/><polygon points="1328.55 1175.37 1274.99 1203.95 1303.38 1213.28 1328.55 1175.37" fill="#fff" fill-rule="evenodd"/><path d="M1419.35,1047.46c8,6.29-3,16.38-14.56,8.3-49.23-28.78-38-22.21-87.17-51-7.06-5.3.59-15.52,13.11-8.67C1380,1024.89,1370.13,1018.68,1419.35,1047.46Z" transform="translate(-0.48 3.27)" fill="#accbf2" fill-rule="evenodd"/><path d="M1382.87,1068.26c8,6.29-3,16.38-14.57,8.3l-87.17-51c-7.06-5.3.59-15.51,13.11-8.67C1343.46,1045.69,1333.64,1039.48,1382.87,1068.26Z" transform="translate(-0.48 3.27)" fill="#accbf2" fill-rule="evenodd"/><path d="M1343,1091c8,6.29-3,16.39-14.56,8.31-49.23-28.78-38-22.21-87.17-51-7.06-5.3.59-15.52,13.11-8.67C1303.6,1068.41,1293.78,1062.21,1343,1091Z" transform="translate(-0.48 3.27)" fill="#accbf2" fill-rule="evenodd"/><path d="M1305.79,1112.2c8,6.29-3,16.38-14.57,8.3l-87.16-51c-7.07-5.3.59-15.51,13.11-8.67C1266.39,1089.63,1256.57,1083.42,1305.79,1112.2Z" transform="translate(-0.48 3.27)" fill="#accbf2" fill-rule="evenodd"/><path d="M1343.27,961.5c1.87,3.28.24,7.74-3.63,10s-8.54,1.34-10.41-2-.25-7.73,3.63-9.94S1341.4,958.22,1343.27,961.5Z" transform="translate(-0.48 3.27)" fill="#db4b8c" fill-rule="evenodd"/><path d="M1308.81,981.15c1.87,3.28.24,7.73-3.63,9.94s-8.54,1.34-10.41-1.94-.25-7.74,3.63-9.95S1306.94,977.86,1308.81,981.15Z" transform="translate(-0.48 3.27)" fill="#db4b8c" fill-rule="evenodd"/><path d="M1272.32,1002c1.87,3.28.25,7.73-3.63,9.94s-8.54,1.34-10.41-1.94-.24-7.74,3.63-10S1270.45,998.66,1272.32,1002Z" transform="translate(-0.48 3.27)" fill="#db4b8c" fill-rule="evenodd"/><path d="M1232.46,1024.67c1.87,3.29.24,7.74-3.63,9.95s-8.54,1.34-10.41-1.94-.25-7.74,3.63-10S1230.59,1021.39,1232.46,1024.67Z" transform="translate(-0.48 3.27)" fill="#db4b8c" fill-rule="evenodd"/><path d="M1195.25,1045.89c1.87,3.28.24,7.73-3.63,9.94s-8.54,1.34-10.41-1.94-.25-7.74,3.63-10S1193.38,1042.6,1195.25,1045.89Z" transform="translate(-0.48 3.27)" fill="#db4b8c" fill-rule="evenodd"/><path d="M1454.73,1025.29c8,6.29-3,16.38-14.57,8.3l-87.16-51c-7.06-5.3.59-15.51,13.11-8.67C1415.33,1002.72,1405.51,996.51,1454.73,1025.29Z" transform="translate(-0.48 3.27)" fill="#accbf2" fill-rule="evenodd"/><path d="M1451.69,873.05,986.82,602.59c-9.91-5.76-18.12-13.42-16.72-32,2-79.51.68-150.13,5.84-229.64.4-10.77,11.43-13,19.73-7.23l463,269.36c16.07,9.35,32,25.44,31.48,44.42-1.87,72.72-3.58,138.9-5.46,211.61C1484.33,872.47,1472.54,887.45,1451.69,873.05Z" transform="translate(-0.48 3.27)" fill="#db538c" fill-rule="evenodd"/><polygon points="1441.24 856.46 1447.37 618.9 1039.05 378.24 1034.1 621.07 1441.24 856.46" fill="#e3f3ff" fill-rule="evenodd"/><path d="M1009.13,315.55a12.12,12.12,0,0,1,3.83-.41h0a16.85,16.85,0,0,1,8.68,3.06l463,269.37c16.07,9.35,32,25.44,31.48,44.42-1.88,72.71-3.59,138.89-5.47,211.61a23,23,0,0,1-5.47,14.52h0v0c-.45.49-.92,1-1.41,1.4-5.32,5-17.31,14.09-29.18,17.79h0l.51-.29.06,0,.47-.3.06,0c.15-.1.31-.2.45-.31l.08,0,.45-.33,0,0,.44-.35.06-.05.41-.36.07-.06a17.89,17.89,0,0,0,1.66-1.71l.05-.06.34-.42.07-.08.31-.42.06-.08c.12-.15.22-.31.33-.46l0,0c.11-.16.21-.32.31-.48l.05-.07.29-.47,0-.08c.1-.16.19-.32.28-.48l0,0c.1-.17.19-.35.28-.52h0l.27-.52,0,0,0,0c.08-.17.16-.34.23-.51l0-.05.22-.52,0-.08.21-.5,0-.12c.07-.17.13-.35.19-.52l0-.06c.07-.18.13-.35.19-.53l0-.1c.05-.18.11-.35.16-.52l0-.1c.17-.59.32-1.18.44-1.78v0c0-.19.08-.38.11-.57l0-.07.09-.58v0c0-.19.06-.37.08-.56l0-.13.06-.52v-.08c0-.19,0-.37.05-.55v-.09l0-.53v-.1c0-.19,0-.38,0-.57l.09-3.41,0-1.16.05-2.23.07-2.4,0-1,.09-3.37.08-3.37,0-1.7,0-1.66.09-3.35.07-2.9v-.45l0-.58.07-2.76.09-3.33,0-.87.06-2.45.09-3.32,0-.78.06-2.53.06-2.16,0-1.15,0-.82.06-2.48.09-3.3.09-3.29v-.18l.08-3.11,0-1,0-2.29.09-3.28.08-3.27.09-3.27,0-1.61,0-1.66.06-2.27,0-1,0-1.2.05-2.06.09-3.26.08-3.27.07-2.82v-.68l.08-3,.08-3.26,0-1.93,0-1.32.08-3.26.08-3.08v-.17l.09-3.26.08-3.25.09-3.26,0-1.73,0-1.53.08-3.26.08-3.12v-.14l.08-3.27.07-2.77,0-.49,0-.89.06-2.38.09-3.27.08-3.28.08-3.28,0-1.44.05-1.84,0-1.66,0-1.63.09-3.29.08-3.29.09-3.3.09-3.31.06-2.33,0-1,.09-3.32.08-3.33,0-1.21.06-2.12.08-3.34.09-3.34.09-3.35.08-3.36v-.2l.08-3.17.09-3.38,0-1.84,0-1.55.09-3.39h0l.09-3.4c.49-19-15.41-35.07-31.48-44.42l-7.47-4.35-7.45-4.33-7.17-4.17-.26-.16-7.06-4.1-.35-.21-7.38-4.29-7.37-4.29-7.34-4.27-6.63-3.85-.7-.41-6.52-3.8-.79-.45-6.42-3.74-.87-.5-6.32-3.68-.95-.56-7.26-4.22-7.24-4.21-7.23-4.21-5.92-3.44-1.29-.75-5.83-3.4-1.38-.8-7.19-4.18-5.63-3.28-1.55-.89-5.54-3.23-1.62-.94-5.45-3.18-1.71-1-5.36-3.12-1.79-1-5.27-3.06-1.87-1.09-5.18-3-2-1.13-7.12-4.15-5-2.91-2.13-1.23-7.11-4.15-4.82-2.8-2.3-1.33-4.73-2.76-2.37-1.38-4.65-2.7-2.46-1.43-4.56-2.65-2.54-1.49-4.48-2.6-2.63-1.53-7.1-4.13-7.1-4.13-4.22-2.46-2.89-1.67-4.13-2.41-3-1.73-4-2.36-3.06-1.78-4-2.3-3.14-1.83-3.89-2.26-3.23-1.88-7.12-4.15-3.72-2.16-3.41-2-3.64-2.12-3.49-2-3.56-2.07-3.58-2.09-3.48-2-3.67-2.14-3.39-2-3.77-2.19-7.16-4.17-3.24-1.88-3.94-2.3-7.19-4.18-7.2-4.19-7.21-4.19-7.23-4.21-2.83-1.64-4.41-2.57-2.75-1.6-4.51-2.62-2.66-1.55-4.61-2.68-7.29-4.24-2.5-1.46-4.8-2.79-7.33-4.26-2.34-1.37-5-2.91-2.26-1.31-5.1-3-2.18-1.27-5.2-3-7.41-4.3-2-1.18L1017.9,347l-7.45-4.34-1.37-.8-13.6-7.91c-5.67-3.91-12.61-4.13-16.57-.44C986.22,322.39,1001.06,317,1009.13,315.55Z" transform="translate(-0.48 3.27)" fill="#bd3e73" fill-rule="evenodd"/><path d="M992,499.43c-6.13-11.26-5.24-23.9,2-28.22s18,1.3,24.14,12.56,5.24,23.89-2,28.21S998.07,510.68,992,499.43Z" transform="translate(-0.48 3.27)" fill="#e38db1" fill-rule="evenodd"/><path d="M1459.34,773l1.38-39.57c.3-8.6,12.18-2.92,11.88,5.69l-1.38,39.57C1470.92,787.3,1459,781.61,1459.34,773Z" transform="translate(-0.48 3.27)" fill="#9c2154" fill-rule="evenodd"/><path d="M1464.69,794c-.88-1.62-.73-3.45.35-4.09s2.65.14,3.53,1.76.73,3.45-.35,4.1S1465.57,795.63,1464.69,794Z" transform="translate(-0.48 3.27)" fill="#9c2154" fill-rule="evenodd"/><path d="M1461.54,712.37c-1.7-3.13-1.41-6.67.65-7.9s5.12.29,6.82,3.42,1.41,6.67-.65,7.91S1463.24,715.5,1461.54,712.37Z" transform="translate(-0.48 3.27)" fill="#9c2154" fill-rule="evenodd"/><path d="M1130.54,464.09c33.12-9.13,72,27.1,86.85,80.93s0,104.87-33.1,114-72-27.1-86.86-80.93S1097.41,473.23,1130.54,464.09Z" transform="translate(-0.48 3.27)" fill="#d14176" fill-rule="evenodd"/><path d="M1130.54,464.09c23.73-6.55,50.43,10.21,69.12,40l-42.25,57.43Z" transform="translate(-0.48 3.27)" fill="#ed821b" fill-rule="evenodd"/><path d="M1199.66,504.13A154.66,154.66,0,0,1,1217.39,545a152.12,152.12,0,0,1,5.5,49.57l-65.48-33Z" transform="translate(-0.48 3.27)" fill="#f2bc0c" fill-rule="evenodd"/><path d="M1222.89,594.59c-2,32.65-16.09,58.23-38.6,64.44-33.13,9.13-72-27.1-86.86-80.93-.68-2.48-1.31-5-1.86-7.42l61.84-9.12Z" transform="translate(-0.48 3.27)" fill="#118a21" fill-rule="evenodd"/><path d="M1263.84,548.93c-9.44-3.85-12.74,10.74,0,16.77l87.46,50.48c8.1,3.51,13.18-8.2,1-15.68C1303,572,1313.21,577.44,1263.84,548.93Z" transform="translate(-0.48 3.27)" fill="#7eaae0" fill-rule="evenodd"/><path d="M1263.84,580.82c-9.44-3.85-12.74,10.73,0,16.77l87.46,50.48c8.1,3.5,13.18-8.21,1-15.69C1303,603.87,1313.21,609.33,1263.84,580.82Z" transform="translate(-0.48 3.27)" fill="#7eaae0" fill-rule="evenodd"/><path d="M1263.84,612.71c-9.44-3.85-12.74,10.73,0,16.76L1351.3,680c8.1,3.51,13.18-8.2,1-15.68C1303,635.76,1313.21,641.22,1263.84,612.71Z" transform="translate(-0.48 3.27)" fill="#7eaae0" fill-rule="evenodd"/><path d="M1410.2,807.14c4.9,0,8.9-5.73,8.9-12.74s-4-12.75-8.9-12.75-8.89,5.73-8.89,12.75S1405.31,807.14,1410.2,807.14Z" transform="translate(-0.48 3.27)" fill="#9364bf" fill-rule="evenodd"/><path d="M1383.25,791.2c4.9,0,8.89-5.72,8.89-12.74s-4-12.74-8.89-12.74-8.89,5.72-8.89,12.74S1378.36,791.2,1383.25,791.2Z" transform="translate(-0.48 3.27)" fill="#9364bf" fill-rule="evenodd"/><path d="M1356.16,775.67c4.9,0,8.89-5.72,8.89-12.74s-4-12.74-8.89-12.74-8.89,5.72-8.89,12.74S1351.26,775.67,1356.16,775.67Z" transform="translate(-0.48 3.27)" fill="#9364bf" fill-rule="evenodd"/><path d="M1263.84,646.93c-9.44-3.85-12.74,10.73,0,16.76,49.38,28.51-5.64-3.27,43.73,25.24,8.1,3.51,13.19-8.2,1-15.68C1259.23,644.74,1313.21,675.44,1263.84,646.93Z" transform="translate(-0.48 3.27)" fill="#7eaae0" fill-rule="evenodd"/><path d="M79.94,304.46c-16.63-1.18-30.75,21.27-31.54,50.15s12.06,53.27,28.69,54.46a18.5,18.5,0,0,0,10-2.19l5.63-3.82L112.92,411l-9.32-25.43a81.2,81.2,0,0,0,5-26.63C109.42,330,96.57,305.65,79.94,304.46Z" transform="translate(-0.48 3.27)" fill="#e30c0c" fill-rule="evenodd"/><path d="M59.73,373.76c2.82,11.78,10.14,24.45,20.45,24.38,8-.72,16.27-5.89,21.85-28.86C95.84,349.38,73.92,348.15,59.73,373.76Z" transform="translate(-0.48 3.27)" fill="#fff" fill-rule="evenodd"/><path d="M81.14,322.21c-4.88-.35-9,6.25-9.26,14.73s3.54,15.65,8.43,16,9-6.25,9.26-14.73S86,322.56,81.14,322.21Z" transform="translate(-0.48 3.27)" fill="#fff" fill-rule="evenodd"/><path d="M637.17,585.29S626.94,575.18,624,574.64s-11.65-.57-11.35.38,6.77,1.16,7.28,2.24-1.65,4.44.25,7.07,14.68,3.41,14.68,3.41Z" transform="translate(-0.48 3.27)" fill="#f59b7d" fill-rule="evenodd"/><path d="M716.94,592.39c-4,14.42-13,19-41.69,25-15.85-4.37-32.71-19.6-44.86-28.78l3.55-7s33.7,19.48,40.13,22.73C687.83,600.79,704.16,590.39,716.94,592.39Z" transform="translate(-0.48 3.27)" fill="#262626" fill-rule="evenodd"/><path d="M753.23,701.68,741.84,811.31c-.16,2.26-8.62,2-8.87-.34L722.4,713.35,713.31,797c-.15,1.45-9,2.17-9.22-2-4.29-78.25-7.93-109-6.72-117.32C709.91,691.77,725.79,702.11,753.23,701.68Z" transform="translate(-0.48 3.27)" fill-rule="evenodd"/><path d="M754.23,645.12c-5.25,18.69,5.1,53.34,1,56.25-9.76,16.81-56.49-9-59.79-21.45-.35-2.38,8.39-22.47,8.8-44.16.13-8.53-5-18.28,5.13-40.74,5.57-3.66,17.15-4.35,27.35-.06,14,5.92,22.12,14.71,20.87,21.52C759.88,617.2,754.16,643.19,754.23,645.12Z" transform="translate(-0.48 3.27)" fill="#424242" fill-rule="evenodd"/><path d="M737,582.19c-.93,4.4.5,8.12.75,12.18l-13.54,8.38-1-11.4.06-5Z" transform="translate(-0.48 3.27)" fill="#f59b7d" fill-rule="evenodd"/><polygon points="739.21 599.15 737.19 595.82 723.04 606.02 726.73 613.89 739.21 599.15" fill="#262626" fill-rule="evenodd"/><polygon points="722.81 592.29 718.89 593.94 716.74 611.97 720.45 606.16 723.74 606.02 722.81 592.29" fill="#262626" fill-rule="evenodd"/><path d="M725.93,591.14c7.23,0,13.12-7.9,13.12-17.59S733.16,556,725.93,556s-13.13,7.9-13.13,17.59S718.7,591.14,725.93,591.14Z" transform="translate(-0.48 3.27)" fill="#f59b7d" fill-rule="evenodd"/><path d="M736.76,583.49s1.73-8.88-.64-11.78-4.75,6.19-4.75,6.19-2.11-6.45-2.24-8.43,1.85-3.29-1.71-4.61-11.72-.13-14.49-1.71c-5.29-6.11-2.07-12.79,6.32-10.14,3.17-.79,15.29-7.78,21.08-.66C753,554.07,744.14,582,736.76,583.49Z" transform="translate(-0.48 3.27)" fill-rule="evenodd"/><path d="M738.63,808.61l1.87,3.59,2.87,2.69-.13,5.73s-18.86,11.87-25.14,11.73-5.45-3.21-4.05-6.28,9.77-4.75,14.1-11A14.15,14.15,0,0,1,738.63,808.61Z" transform="translate(-0.48 3.27)" fill-rule="evenodd"/><path d="M709.54,791.08l1.87,3.59,2.87,2.69-.13,5.73S695.29,815,689,814.82s-5.45-3.21-4-6.28,9.77-4.75,14.1-11A14.15,14.15,0,0,1,709.54,791.08Z" transform="translate(-0.48 3.27)" fill-rule="evenodd"/><polygon points="721.92 611.25 724.64 618.32 721.92 619.73 723.92 625.38 722.95 664.95 717.78 683.79 713.67 660.01 716.12 625.12 719.31 619.06 716.71 617.58 720.26 611.12 721.92 611.25" fill="#e61c1c" fill-rule="evenodd"/><path d="M750.45,607c6.93-4.48,14,18.22,12.32,39.34-1.22,14.81-4.48,28.34-9.62,43.56-2.92.51-5.74.08-7.86-1.8,0,0,6.67-35,5.46-40.69C746.45,620.26,741,607.89,750.45,607Z" transform="translate(-0.48 3.27)" fill="#262626" fill-rule="evenodd"/><path d="M751.24,685.37s.59,5.35,1.37,6.14,1.57,5.29-.05,7.78-8.21,2.17-9.48.19-.48-6.24.06-7.35,3.8-4.19,3.74-5.59a10.79,10.79,0,0,1,.25-2.72Z" transform="translate(-0.48 3.27)" fill="#f59b7d" fill-rule="evenodd"/><path d="M1239.78,643s7.8-11.89,10.52-13,11.15-3,11-2-6.31,2.53-6.57,3.68,2.52,4,1.22,6.89-13.48,6.34-13.48,6.34Z" transform="translate(-0.48 3.27)" fill="#f59b7d" fill-rule="evenodd"/><path d="M1184.81,659.49c3.86-8.93,26.08-6.45,26.08-6.45l32-15.27,2,6.22c-11.54,9.64-30.85,21.36-40.9,22.73C1194,670.29,1179,672.9,1184.81,659.49Z" transform="translate(-0.48 3.27)" fill="#60059c" fill-rule="evenodd"/><path d="M1233.53,886.74l3.66-86.28L1235,754.07c-21.07,2.08-37.42,5.88-47.7-4.44l-1.52,6.12,4.58,44.79,3.68,68.48a5.71,5.71,0,0,0,7.06,1.25l10-69.27,1.57-26,4.4,30.85,8.06,81.16A7.34,7.34,0,0,0,1233.53,886.74Z" transform="translate(-0.48 3.27)" fill-rule="evenodd"/><path d="M1232.21,664.52c-.53,32.58-3,47.26,4.54,92-24.9,2.29-42.69,12.93-52.73-3.87,5.26-33.21.69-59.41-1.85-80.49h0c1.12-17.92,14.52-19.3,15.07-19.34C1210.4,652.43,1226.07,655.21,1232.21,664.52Z" transform="translate(-0.48 3.27)" fill="#7e18c2" fill-rule="evenodd"/><path d="M1216.5,647.29l.89,7.75-13.47-2.12,0-7.16,4.3-9.72a31.63,31.63,0,0,1-.66-6.46c0-9.82,4.37-17.77,9.76-17.77s9.75,8,9.75,17.77-4.37,17.77-9.75,17.77A4.93,4.93,0,0,1,1216.5,647.29Z" transform="translate(-0.48 3.27)" fill="#f59b7d" fill-rule="evenodd"/><path d="M1219.74,623.43c-3,1.87-4,7.21-4,7.21s-.51-3.48-2.91-2.55,1.64,7.6,1.64,7.6.3,2.4-4.94,7.08-6.32,3-6.32,3-3.2-3-6.37-11.18-2.94-16.71-.52-19.32c3.71-13.17,26.38-.47,30.06-7.94C1232.07,618.44,1224,620.74,1219.74,623.43Z" transform="translate(-0.48 3.27)" fill-rule="evenodd"/><path d="M1202.6,867.32c.41.61,6.86-2.62,8-2.78,4.07-1.32,10,0,3.38,6.22-4.1,4.61-5.81,2-14,8.29-2.44,2.17-5.65,2.07-7.26-.24,0-3-.59-7.46.58-10.48a1.46,1.46,0,0,1,1.69.34C1196.1,870.21,1197.76,871.67,1202.6,867.32Z" transform="translate(-0.48 3.27)" fill-rule="evenodd"/><path d="M1234.2,885c.41.62,6.86-2.61,8-2.77,4.07-1.33,10,0,3.37,6.22-4.09,4.61-5.8,2-14,8.29-2.44,2.16-5.64,2.07-7.25-.25,0-3-.59-7.45.58-10.47a1.44,1.44,0,0,1,1.69.34C1227.7,887.94,1229.36,889.39,1234.2,885Z" transform="translate(-0.48 3.27)" fill-rule="evenodd"/><path d="M1232.06,661.79c6.68,3,5.22,46.42,5.22,46.42l17,33.32-5.93,3.35-22.41-32.09C1225.08,707.82,1213.64,666.09,1232.06,661.79Z" transform="translate(-0.48 3.27)" fill="#60059c" fill-rule="evenodd"/><path d="M1252.58,739.66a9.76,9.76,0,0,0,3.56,3.17c2.29,1.13,4.35,3,4.76,4.58s-2.87,7.72-6.76,8.55c-4.11.88-5.91-9.77-6.57-12.72C1247.07,741,1252.58,739.66,1252.58,739.66Z" transform="translate(-0.48 3.27)" fill="#f59b7d" fill-rule="evenodd"/><path d="M808.47,900.54l-3.69-86.79,2.16-46.67c21.2,2.1,37.65,5.92,48-4.46l1.53,6.16-4.61,45.05-3.7,68.89a5.75,5.75,0,0,1-7.1,1.25L830.94,814.3l-1.58-26.11-4.43,31-8.11,81.65A7.39,7.39,0,0,1,808.47,900.54Z" transform="translate(-0.48 3.27)" fill-rule="evenodd"/><path d="M809.79,677c.54,32.78,3,47.55-4.57,92.59,25,2.3,42.94,13,53-3.89-5.29-33.41-.7-59.77,1.86-81h0c-1.13-18-14.61-19.41-15.16-19.46C831.74,664.84,816,667.63,809.79,677Z" transform="translate(-0.48 3.27)" fill="#db3333" fill-rule="evenodd"/><polygon points="826.38 789.34 827.47 752.58 784.37 726.83 783.49 764.53 826.38 789.34" fill="#fff" fill-rule="evenodd"/><path d="M825.6,659.67l-.9,7.8,13.55-2.13,0-7.21L834,648.35a31.17,31.17,0,0,0,.67-6.5c0-9.87-4.4-17.87-9.81-17.87S815,632,815,641.85s4.4,17.88,9.82,17.88A5.12,5.12,0,0,0,825.6,659.67Z" transform="translate(-0.48 3.27)" fill="#f59b7d" fill-rule="evenodd"/><path d="M822.34,635.67c3,1.88,4,7.25,4,7.25s.51-3.5,2.93-2.57-1.65,7.65-1.65,7.65-.3,2.42,5,7.12,5.68,3.83,5.68,3.83,3.9-3.8,7.08-12,4.68-19.48,2.25-22.1c-6.14-13.53-26.5-1.3-33.83-4C807.36,625.63,818,633,822.34,635.67Z" transform="translate(-0.48 3.27)" fill-rule="evenodd"/><path d="M839.58,881c-.42.62-6.9-2.63-8-2.78-4.09-1.34-10.07,0-3.4,6.25,4.12,4.64,5.84,2,14.12,8.34,2.45,2.18,5.67,2.08,7.3-.25,0-3,.59-7.49-.59-10.54a1.46,1.46,0,0,0-1.7.35C846.11,883.92,844.45,885.38,839.58,881Z" transform="translate(-0.48 3.27)" fill-rule="evenodd"/><path d="M807.79,898.83c-.42.62-6.9-2.62-8-2.78-4.09-1.34-10.06,0-3.39,6.25,4.11,4.64,5.84,2,14.11,8.34,2.45,2.18,5.68,2.08,7.3-.25,0-3,.59-7.49-.58-10.53a1.46,1.46,0,0,0-1.71.34C814.33,901.75,812.66,903.21,807.79,898.83Z" transform="translate(-0.48 3.27)" fill-rule="evenodd"/><path d="M802.37,758.15a9.73,9.73,0,0,1-2.54,4.07c-1.88,1.74-3.33,4.15-3.28,5.78s5,6.63,9,6.31c4.22-.32,2.91-11.11,2.71-14.13C808.07,757.89,802.37,758.15,802.37,758.15Z" transform="translate(-0.48 3.27)" fill="#f59b7d" fill-rule="evenodd"/><path d="M811.57,674.65c-6.72,3-1.89,40.41-1.89,40.41l-7.49,43.62a10.49,10.49,0,0,1,6.08,2.57l12.85-41.58C822,714.67,830.11,679,811.57,674.65Z" transform="translate(-0.48 3.27)" fill="#ba2222" fill-rule="evenodd"/><path d="M889.35,886.54l-3.68-86.79,2.16-46.67c21.2,2.1,37.64,5.92,48-4.46l1.54,6.16-4.62,45.05L929,868.72a5.75,5.75,0,0,1-7.1,1.25L911.82,800.3l-1.58-26.11-4.42,31-8.12,81.65A7.39,7.39,0,0,1,889.35,886.54Z" transform="translate(-0.48 3.27)" fill-rule="evenodd"/><path d="M890.67,663c.54,32.78,3.05,47.55-4.56,92.59,25,2.3,42.94,13,53-3.9-5.28-33.4-.7-59.76,1.86-81h0c-1.13-18-14.61-19.4-15.16-19.45C912.62,650.84,896.85,653.63,890.67,663Z" transform="translate(-0.48 3.27)" fill="#4134db" fill-rule="evenodd"/><path d="M906.48,645.67l-.89,7.8,13.54-2.14,0-7.2-4.34-9.78a30.51,30.51,0,0,0,.67-6.5c0-9.87-4.39-17.87-9.81-17.87s-9.81,8-9.81,17.87,4.39,17.88,9.81,17.88A4.93,4.93,0,0,0,906.48,645.67Z" transform="translate(-0.48 3.27)" fill="#f59b7d" fill-rule="evenodd"/><path d="M903.22,621.67c3,1.87,4,7.25,4,7.25s.52-3.5,2.93-2.57-1.65,7.65-1.65,7.65-.3,2.42,5,7.12,6.36,3,6.36,3,3.22-3,6.41-11.24,4.83-16.21,2.4-18.83c-1.31-7.31-20.82-11.68-27.06-5.49C895.17,613.42,898.89,619,903.22,621.67Z" transform="translate(-0.48 3.27)" fill-rule="evenodd"/><path d="M920.46,867c-.41.62-6.89-2.63-8-2.78-4.09-1.34-10.06,0-3.39,6.25,4.12,4.64,5.84,2,14.11,8.34,2.46,2.18,5.68,2.08,7.3-.25,0-3,.59-7.49-.58-10.54a1.48,1.48,0,0,0-1.71.35C927,869.92,925.33,871.38,920.46,867Z" transform="translate(-0.48 3.27)" fill-rule="evenodd"/><path d="M888.67,884.83c-.41.62-6.89-2.62-8-2.78-4.09-1.34-10.07,0-3.4,6.25,4.12,4.64,5.84,2,14.12,8.34,2.45,2.18,5.67,2.08,7.29-.25,0-3,.6-7.49-.58-10.53a1.44,1.44,0,0,0-1.7.34C895.21,887.75,893.55,889.21,888.67,884.83Z" transform="translate(-0.48 3.27)" fill-rule="evenodd"/><path d="M883.33,744.07a9.77,9.77,0,0,1-2.53,4.07c-1.88,1.74-3.34,4.15-3.28,5.78s5,6.63,9,6.32c4.22-.33,2.92-11.11,2.72-14.14C889,743.82,883.33,744.07,883.33,744.07Z" transform="translate(-0.48 3.27)" fill="#f59b7d" fill-rule="evenodd"/><path d="M892.54,660.57c-6.72,3-1.89,40.41-1.89,40.41l-7.5,43.62a10.56,10.56,0,0,1,6.08,2.57l12.85-41.58C902.92,700.59,911.07,664.9,892.54,660.57Z" transform="translate(-0.48 3.27)" fill="#2316b5" fill-rule="evenodd"/><path d="M638.45,729.3c-.33,2.82-.65,5.64-1,8.46,4.9-.77,15.3-.43,20.2-1.2-1.35-2.52-2.26-7.77-2.25-10.37-1.56-3.54-6.33-5.65-7.9-9.19a33.67,33.67,0,0,0,.73-7c0-10.72-4.77-19.41-10.66-19.41s-10.65,8.69-10.65,19.41,4.77,19.41,10.65,19.41A6.22,6.22,0,0,0,638.45,729.3Z" transform="translate(-0.48 3.27)" fill="#f59b7d" fill-rule="evenodd"/><path d="M634.9,703.24c3.26,2,4.37,7.87,4.37,7.87s.56-3.81,3.18-2.79-1.79,8.31-1.79,8.31-.33,2.62,5.4,7.73,9,2.89,9,2.89,1.39-2.87,4.85-11.81,5.08-21.15,2.44-24c-1.42-7.93-11.16-10.75-37.91-3.32C619.92,695.49,630.2,700.3,634.9,703.24Z" transform="translate(-0.48 3.27)" fill-rule="evenodd"/><path d="M630.21,1003.31l-4.39-96.2-3.17-55.35c24.3,1.47,43.24,5.11,54.6-7.19l2,7L676,903.18l-1.06,80.14a5.84,5.84,0,0,1-8.21.43l-11.75-77L652,877l-4.9,34.08-7.34,93C637,1006,633,1005.4,630.21,1003.31Z" transform="translate(-0.48 3.27)" fill-rule="evenodd"/><path d="M663.63,742.88c6.56-4.45,8.93-2.23,13,5,1.86,3.68,9.62,28.22,5.8,35.09-7.69,3.23-12.68,4.28-23.15-.17L663.87,771l2.51-.41C662.75,754.42,659.46,745.29,663.63,742.88Z" transform="translate(-0.48 3.27)" fill="#1961a8" fill-rule="evenodd"/><path d="M619.81,747c2.05,37.41,7.71,56,1,107.74,22,5,47.85,8.75,60.4-6.75-7.49-37.92-3.4-68.22-1.4-92.54h0c-2.08-20.53-17.53-21.52-18.16-21.56C646.5,733.93,629.5,739.82,619.81,747Z" transform="translate(-0.48 3.27)" fill="#008bc7" fill-rule="evenodd"/><path d="M630.05,1003.66c-.45.73-8-2.69-9.3-2.83-4.73-1.34-11.49.43-3.6,7.29,4.9,5.12,6.76,2,16.48,8.91,2.9,2.38,6.57,2.13,8.32-.6-.09-3.47.35-8.59-1.12-12C638.5,1003.53,636.65,1009.61,630.05,1003.66Z" transform="translate(-0.48 3.27)" fill-rule="evenodd"/><path d="M665.52,983.24c-.44.73-8-2.7-9.29-2.83-4.73-1.34-11.5.43-3.61,7.29,4.91,5.12,6.76,2,16.48,8.91,2.9,2.38,6.57,2.13,8.32-.6-.09-3.47.35-8.59-1.12-12C674,983.11,672.12,989.19,665.52,983.24Z" transform="translate(-0.48 3.27)" fill-rule="evenodd"/><path d="M630.25,748.92c-5-6.12-7.94-4.65-13.91,1.12-2.82,3-16.66,33-14.92,40.69,6.47,5.26,11,7.68,22.25,6.36l-.79-12.24-2.55-1.46C628.37,768.89,633.58,752.41,630.25,748.92Z" transform="translate(-0.48 3.27)" fill="#1961a8" fill-rule="evenodd"/><path d="M492.51,758.62c4.95,0,9-6.62,9-14.75s-4-14.74-9-14.74-9,6.62-9,14.74S487.55,758.62,492.51,758.62Z" transform="translate(-0.48 3.27)" fill="#f59b7d" fill-rule="evenodd"/><path d="M491.24,766.2s-2.48-9.57-2-13.61-13.63-4.07-13.63-4.07A54.53,54.53,0,0,1,474,763.86S484.62,768.94,491.24,766.2Z" transform="translate(-0.48 3.27)" fill="#f59b7d" fill-rule="evenodd"/><path d="M477,720.83c15.72-5.35,21.63,3.55,23,6.66,1.09,3.38,2.44,16.39-2.67,17.42,0,0-.5-2.84-2.5-3.25-2.82-.59-2.7,2.64-2.33,5.21a11.22,11.22,0,0,0-3,.13c-3,.4-3.42,7.43-3.42,7.43a14.91,14.91,0,0,1-14.17-8.49C467.42,737.43,469.38,723.42,477,720.83Z" transform="translate(-0.48 3.27)" fill-rule="evenodd"/><path d="M470.92,911.44l7.13,72.8c1.68,2.17,3.61,1.62,5.15-.51L485.81,917C485.81,916.49,472.29,912,470.92,911.44Z" transform="translate(-0.48 3.27)" fill="#e8966d" fill-rule="evenodd"/><path d="M504,998.85l4.79-80.32a37.85,37.85,0,0,1-15.64.43l5.81,80.35C500.8,1001.1,502.61,1000.45,504,998.85Z" transform="translate(-0.48 3.27)" fill="#e8966d" fill-rule="evenodd"/><path d="M513,919.91,511.16,865c-21.55,2.13-38.26,6-48.77-4.53l-1.56,6.25,4.69,45.79C480.53,918.49,497.09,926.46,513,919.91Z" transform="translate(-0.48 3.27)" fill-rule="evenodd"/><path d="M508.27,773.48c-.55,33.32-3.1,48.33,4.64,94.11-25.46,2.34-43.65,13.23-53.92-4,5.38-34,.71-60.74-1.89-82.29h0c1.15-18.32,14.85-19.73,15.41-19.78C486,761.13,502,764,508.27,773.48Z" transform="translate(-0.48 3.27)" fill="#ff8c00" fill-rule="evenodd"/><path d="M504.65,998.92c.31.45,5.2-1.09,6-1.2,3-1,7.22-.85,2.34,3.74-2.66,3-5.71,2.73-9,3.32-.7.13-.63,2.23-1.35,2.78-1.8,1.6-4.16,1.53-5.35-.17,0-2.23-.43-5.5.43-7.72a1.05,1.05,0,0,1,1.25.25C499.86,1001.05,501.08,1002.12,504.65,998.92Z" transform="translate(-0.48 3.27)" fill-rule="evenodd"/><path d="M515.33,856a9.94,9.94,0,0,0,2.57,4.14c1.91,1.77,3.39,4.22,3.34,5.87s-5,6.74-9.1,6.43c-4.29-.34-3-11.3-2.76-14.37C509.53,855.78,515.33,856,515.33,856Z" transform="translate(-0.48 3.27)" fill="#f59b7d" fill-rule="evenodd"/><path d="M505.88,770.7c6.83,3.09,1.92,41.07,1.92,41.07l7.62,44.34a10.68,10.68,0,0,0-6.18,2.61l-13.06-42.26C495.33,811.38,487,775.1,505.88,770.7Z" transform="translate(-0.48 3.27)" fill="#e86e03" fill-rule="evenodd"/><path d="M478.47,740.73s1.41-2.29-8.39-1.31c-20.15,8.74-5.85,36.31-6.14,63.74,21.37-17.42-5.11-58.73,10.57-58.18C481.52,742,478.47,740.73,478.47,740.73Z" transform="translate(-0.48 3.27)" fill-rule="evenodd"/><path d="M484,983.9c.31.46,5.2-1.08,6-1.2,3-1,7.23-.85,2.34,3.74-2.66,3-5.71,2.74-9,3.33-.69.12-.63,2.23-1.35,2.78-1.8,1.6-4.16,1.53-5.35-.18,0-2.23-.43-5.49.43-7.72a1.08,1.08,0,0,1,1.25.25C479.16,986,480.38,987.11,484,983.9Z" transform="translate(-0.48 3.27)" fill-rule="evenodd"/><path d="M1127.76,1008.74c-3-.8-6.17-1.29-8.69-.8-6.66,1.29-10.16,9.42-10.53,19.77-.18,4.91.85,17.5,2,29.38l14.12-7.7,1.82-12.81,1.22-2.83c-.18-.34-.35-.67-.52-1-6-5-4.81-10.84-4.81-10.84A38.69,38.69,0,0,0,1127.76,1008.74Z" transform="translate(-0.48 3.27)" fill="#2c178a" fill-rule="evenodd"/><path d="M1135.93,1053.74c-14-3-32.82-18.91-32.82-18.91-.68,10.16-1.15,19.14-1.73,27.25l-13.05,7.11c-1.33-19.7-2.95-47.36-1.71-50,5.23-10.94,31.77-2.23,39.89.21-2.64,7.58,1.18,14.32,9.24,16.41,9.61,2.49,32.92-7,35.44-10.78C1174.67,1037.68,1166.25,1059.46,1135.93,1053.74Z" transform="translate(-0.48 3.27)" fill="#4731a8" fill-rule="evenodd"/><polygon points="1114.04 950.72 1113.47 986.26 1075.7 1008.06 1075.79 972.8 1114.04 950.72" fill="#fff" fill-rule="evenodd"/><polygon points="1111.18 955.57 1110.71 984.64 1078.49 1003.24 1078.57 974.41 1111.18 955.57" fill-rule="evenodd"/><polygon points="1099.97 1022.14 1075.7 1008.06 1113.1 986.57 1137.28 1000.6 1099.97 1022.14" fill="#fff" fill-rule="evenodd"/><polygon points="1094.67 1016.52 1077.89 1006.79 1110.91 987.84 1127.59 997.51 1094.67 1016.52" fill="#ccc" fill-rule="evenodd"/><polygon points="1099.97 1022.14 1075.7 1008.06 1075.7 1010.86 1099.97 1024.94 1137.28 1003.4 1137.28 1000.6 1099.97 1022.14" fill="#e6e6e6" fill-rule="evenodd"/><path d="M1122.35,1021.9s-1.72,8.63,9.68,13.81,34.13,5.28,39.66-1.63c4.91-30.1,2.19-76-1.49-88a7.65,7.65,0,0,0-2.76-5.7c-2.94-2.59-9.33-3.28-9.33-3.28s-10.8,2.41-17.19,6.55-11.3,4.43-15.83,11.9C1126,972.32,1135.27,1002.36,1122.35,1021.9Z" transform="translate(-0.48 3.27)" fill="#f40" fill-rule="evenodd"/><path d="M1137.21,975.12c-6-11.46-15.51-6.84-10.42,7,2,7.32.67,11.55.67,11.55-8.38,1.17-21.94,4.14-28.9,5.92-2.6-.47-12.32-4.52-13,.54-.38,2.68-.9,5.1,1.36,6.6s2.24-1,3.92-1.6a42.06,42.06,0,0,1,6.39-.68c10.52,1.36,27.3.13,36.8-.46C1147.25,1002.54,1139.51,976.7,1137.21,975.12Z" transform="translate(-0.48 3.27)" fill="#f59b7d" fill-rule="evenodd"/><path d="M1140.12,981.15c.68-7.77-1.95-22-3.61-23.89-1-4.14-3.56-5.76-7.14-6.09-11.62-1-5,24.31-3.73,29.36A35.46,35.46,0,0,0,1140.12,981.15Z" transform="translate(-0.48 3.27)" fill="#fa7646" fill-rule="evenodd"/><path d="M1138.57,935.87c5.22,0,9.48-7,9.48-15.53s-4.26-15.54-9.48-15.54-9.48,7-9.48,15.54S1133.35,935.87,1138.57,935.87Z" transform="translate(-0.48 3.27)" fill="#f59b7d" fill-rule="evenodd"/><path d="M1139.9,943.86s2.62-10.09,2.07-14.34,14.37-4.29,14.37-4.29a56.83,56.83,0,0,0,1.74,16.16S1146.88,946.75,1139.9,943.86Z" transform="translate(-0.48 3.27)" fill="#f59b7d" fill-rule="evenodd"/><path d="M1154.9,896.06c-16.56-5.63-22.78,3.74-24.23,7-1.15,3.56-2.56,17.26,2.81,18.34,0,0,.53-3,2.64-3.42,3-.62,2.84,2.78,2.45,5.49a12.23,12.23,0,0,1,3.19.14c3.14.43,3.59,7.83,3.59,7.83s12.24.28,16.66-8.15C1166.72,914.35,1162.94,898.79,1154.9,896.06Z" transform="translate(-0.48 3.27)" fill-rule="evenodd"/><path d="M1167.86,918.65c4.33,0,7.87-4.2,7.87-9.35s-3.54-9.35-7.87-9.35-7.86,4.2-7.86,9.35S1163.53,918.65,1167.86,918.65Z" transform="translate(-0.48 3.27)" fill-rule="evenodd"/><path d="M562.79,1261.51c.15,24.87-34.65,45.26-77.74,45.53s-78.14-19.69-78.29-44.56,34.65-45.26,77.73-45.53S562.63,1236.63,562.79,1261.51Z" transform="translate(-0.48 3.27)" fill="#ebb223" fill-rule="evenodd"/><path d="M562.79,1283.6c-2.94,50.31-115.45,57.8-149.7,16-5.41-9.7-7.29-23-6.33-37.16,3.27,57,149.17,59.49,156-1C563.93,1267.85,563.5,1277.23,562.79,1283.6Z" transform="translate(-0.48 3.27)" fill="#e69407" fill-rule="evenodd"/><path d="M562.79,1283.6c-1.58,27-34.78,41.69-70.47,43-8.31-5.69-14.43-13.22-17-20.84,39.81,1.87,83.14-12.13,87.46-44.25C563.93,1267.85,563.5,1277.23,562.79,1283.6Z" transform="translate(-0.48 3.27)" fill="#f5cf5d" fill-rule="evenodd"/><path d="M562.79,1236.81c.15,24.88-34.65,45.26-77.74,45.53s-78.14-19.68-78.29-44.56,34.65-45.26,77.73-45.52S562.63,1211.94,562.79,1236.81Z" transform="translate(-0.48 3.27)" fill="#ebb223" fill-rule="evenodd"/><path d="M562.79,1258.91c-2.94,50.31-115.45,57.8-149.7,16-5.41-9.69-7.29-23-6.33-37.16,3.27,57,149.17,59.49,156-1C563.93,1243.15,563.5,1252.54,562.79,1258.91Z" transform="translate(-0.48 3.27)" fill="#e69407" fill-rule="evenodd"/><path d="M562.79,1258.91c-1.58,27-34.78,41.68-70.47,43-8.31-5.69-14.43-13.23-17-20.84,39.81,1.86,83.14-12.13,87.46-44.26C563.93,1243.16,563.5,1252.54,562.79,1258.91Z" transform="translate(-0.48 3.27)" fill="#f5cf5d" fill-rule="evenodd"/><path d="M562.79,1212.31c.15,24.88-34.65,45.27-77.74,45.53s-78.14-19.68-78.29-44.56,34.65-45.26,77.73-45.52S562.63,1187.44,562.79,1212.31Z" transform="translate(-0.48 3.27)" fill="#ebb223" fill-rule="evenodd"/><path d="M562.79,1234.41c-2.94,50.31-115.45,57.8-149.7,16-5.41-9.7-7.29-23-6.33-37.17,3.27,57,149.17,59.5,156-1C563.93,1218.66,563.5,1228,562.79,1234.41Z" transform="translate(-0.48 3.27)" fill="#e69407" fill-rule="evenodd"/><path d="M562.79,1234.41c-1.58,27-34.78,41.69-70.47,43-8.31-5.69-14.43-13.22-17-20.84,39.81,1.86,83.14-12.13,87.46-44.26C563.93,1218.66,563.5,1228,562.79,1234.41Z" transform="translate(-0.48 3.27)" fill="#f5cf5d" fill-rule="evenodd"/><path d="M562.79,1187.82c.15,24.87-34.65,45.26-77.74,45.52s-78.14-19.68-78.29-44.55,34.65-45.26,77.73-45.53S562.63,1162.94,562.79,1187.82Z" transform="translate(-0.48 3.27)" fill="#ebb223" fill-rule="evenodd"/><path d="M562.79,1209.91c-2.94,50.31-115.45,57.8-149.7,16-5.41-9.7-7.29-23-6.33-37.16,3.27,57,149.17,59.49,156-1C563.93,1194.16,563.5,1203.54,562.79,1209.91Z" transform="translate(-0.48 3.27)" fill="#e69407" fill-rule="evenodd"/><path d="M562.79,1209.91c-1.58,27-34.78,41.69-70.47,43-8.31-5.69-14.43-13.22-17-20.84,39.81,1.87,83.14-12.13,87.46-44.26C563.93,1194.16,563.5,1203.54,562.79,1209.91Z" transform="translate(-0.48 3.27)" fill="#f5cf5d" fill-rule="evenodd"/><path d="M562.79,1162.53c.15,24.87-34.65,45.26-77.74,45.53s-78.14-19.68-78.29-44.56,34.65-45.26,77.73-45.53S562.63,1137.65,562.79,1162.53Z" transform="translate(-0.48 3.27)" fill="#ebb223" fill-rule="evenodd"/><path d="M562.79,1184.62c-2.94,50.31-115.45,57.8-149.7,16-5.41-9.7-7.29-23-6.33-37.16,3.27,57,149.17,59.49,156-1C563.93,1168.87,563.5,1178.25,562.79,1184.62Z" transform="translate(-0.48 3.27)" fill="#e69407" fill-rule="evenodd"/><path d="M562.79,1184.62c-1.58,27-34.78,41.69-70.47,43-8.31-5.69-14.43-13.22-17-20.84,39.81,1.87,83.14-12.12,87.46-44.25C563.93,1168.87,563.5,1178.25,562.79,1184.62Z" transform="translate(-0.48 3.27)" fill="#f5cf5d" fill-rule="evenodd"/><path d="M536.8,1128.13c.15,24.88-34.65,45.26-77.74,45.53s-78.14-19.68-78.29-44.56,34.65-45.26,77.73-45.53S536.65,1103.25,536.8,1128.13Z" transform="translate(-0.48 3.27)" fill="#ebb223" fill-rule="evenodd"/><path d="M536.8,1150.23c-2.94,50.31-115.45,57.79-149.7,16-5.41-9.7-7.29-23-6.33-37.16,3.27,57,149.17,59.49,156-1C537.94,1134.47,537.51,1143.85,536.8,1150.23Z" transform="translate(-0.48 3.27)" fill="#e69407" fill-rule="evenodd"/><path d="M536.8,1150.22c-1.58,27-34.78,41.69-70.47,43-8.31-5.7-14.43-13.23-17-20.84,39.81,1.86,83.14-12.13,87.46-44.26C537.94,1134.47,537.51,1143.86,536.8,1150.22Z" transform="translate(-0.48 3.27)" fill="#f5cf5d" fill-rule="evenodd"/><path d="M431.37,1143.26l15.82-11.85a19.25,19.25,0,0,1,1.19-12.45,27.43,27.43,0,0,1,8.75-10.24q6.19-4.63,12.29-5a11.59,11.59,0,0,1,9.85,3.71l3.72-2.79,2.65,3.9-3.72,2.78a13.2,13.2,0,0,1,.53,9.9,25,25,0,0,1-6.87,10l-5.87-5.88q4-4,3.84-7.77l-14.77,11.06c1.31,5.53,1.17,10.06-.36,13.56s-4.36,6.8-8.45,9.86q-6.84,5.12-13.52,5.68a14.34,14.34,0,0,1-11.42-3.83l-7,5.28-2.65-3.9,7-5.22a14.5,14.5,0,0,1-.27-11.13c1.38-4,4.37-8,8.93-12.26l5.9,6.1a20.78,20.78,0,0,0-4.11,5.51,11.58,11.58,0,0,0-1.38,5Zm39.68-29.71a6.43,6.43,0,0,0-4.3-.54,11,11,0,0,0-4.63,2.08,11.12,11.12,0,0,0-3.15,3.62,8.75,8.75,0,0,0-1,4.64l13.1-9.8Zm-37.65,34.07a6.64,6.64,0,0,0,5,1.26,11.63,11.63,0,0,0,5.8-2.43,11.08,11.08,0,0,0,3.62-4.33,8.76,8.76,0,0,0,.45-5.59Z" transform="translate(-0.48 3.27)" fill="#ffebb0" fill-rule="evenodd"/><path d="M311.43,602.38l217.9-125.67V645.87L311.42,771.69V602.38Zm38.64-18.74q0,19.41,0,38.81L383.67,603v-38.8l-33.6,19.4Zm35.67-20.59q0,19.41,0,38.81l33.61-19.41v-38.8l-33.6,19.4Zm35.67-20.59q0,19.39,0,38.8L455,561.86v-38.8l-33.6,19.4Zm35.66-20.59v38.8l33.61-19.41v-38.8l-33.61,19.41Zm35.67-20.6q0,19.41,0,38.81l33.62-19.41v-38.8l-33.61,19.4Zm33.61,21.79-33.62,19.4q0,19.41,0,38.81l33.63-19.41v-38.8Zm-35.67,59.39v-38.8l-33.61,19.41q0,19.4,0,38.8l33.63-19.41ZM455,603v-38.8L421.4,583.65q0,19.4,0,38.81L455,603Zm-35.67,20.6v-38.8l-33.61,19.4q0,19.41,0,38.81l33.62-19.41Zm-35.67,20.59v-38.8l-33.61,19.41q0,19.39,0,38.8l33.62-19.41ZM348,664.82V626l-33.61,19.4v38.8L348,664.82ZM314.42,604.1q0,19.41,0,38.81L348,623.5V584.7l-33.6,19.4Zm35.65,61.84q0,19.39,0,38.8l33.61-19.4v-38.8l-33.6,19.4Zm35.67-20.59q0,19.39,0,38.8l33.61-19.41v-38.8l-33.6,19.41Zm35.67-20.6q0,19.41,0,38.81L455,644.15v-38.8l-33.6,19.4Zm35.66-20.59V643l33.61-19.4v-38.8l-33.61,19.4Zm35.67-20.59q0,19.39,0,38.8L526.35,603V564.17l-33.61,19.4Zm33.61,21.78-33.62,19.41q0,19.4,0,38.8l33.63-19.41v-38.8Zm-35.67,59.39v-38.8l-33.61,19.41q0,19.41,0,38.81l33.63-19.42ZM455,685.34v-38.8l-33.61,19.4q0,19.41,0,38.81L455,685.34Zm-35.67,20.59v-38.8l-33.61,19.41q0,19.4,0,38.8l33.62-19.41Zm-35.67,20.59v-38.8l-33.61,19.41q0,19.41,0,38.81l33.62-19.42ZM348,747.12v-38.8l-33.61,19.4v38.8L348,747.12ZM314.42,686.4q0,19.4,0,38.8L348,705.8V667Z" transform="translate(-0.48 3.27)" fill="#fff" fill-rule="evenodd"/><path d="M356.58,624,414,659c1.18-4.52,4.06-7.72,7.43-7.72a6.27,6.27,0,0,1,4.58,2.21q11.68-21,23.41-41.69A16.1,16.1,0,0,1,447,603c0-6.78,3.58-12.29,8-12.29a6.46,6.46,0,0,1,4.86,2.53q12.79-22.51,25.79-45.07a17.73,17.73,0,0,1-.93-5.75c0-6.78,3.58-12.29,8-12.29s8,5.51,8,12.29-3.59,12.29-8,12.29a6.4,6.4,0,0,1-4.72-2.36l-25.93,44.9A17.51,17.51,0,0,1,463,603c0,6.79-3.58,12.29-8,12.29a5.57,5.57,0,0,1-2.69-.71l-23.92,43a17.51,17.51,0,0,1,1,5.95c0,6.78-3.58,12.29-8,12.29s-8-5.51-8-12.29v-.07l-57.29-34.93c-1.1,4.74-4.06,8.14-7.53,8.14-4.42,0-8-5.5-8-12.29s3.58-12.29,8-12.29S356.44,617.4,356.58,624Z" transform="translate(-0.48 3.27)" fill="#66008f" fill-rule="evenodd"/><path d="M499.54,375c7.93-3.23,10.7,9,0,14.08-41.47,23.95-127.22,72.35-168.69,96.3-6.8,2.94-11.07-6.89-.87-13.18C371.45,448.26,458.07,399,499.54,375Z" transform="translate(-0.48 3.27)" fill="#64a0db" fill-rule="evenodd"/><path d="M451.94,426.35c6.44-2.63,8.7,7.33,0,11.45l-59.72,34.46c-5.53,2.4-9-5.6-.7-10.71C425.23,442.09,418.23,445.81,451.94,426.35Z" transform="translate(-0.48 3.27)" fill="#64a0db" fill-rule="evenodd"/><path d="M350.35,550.14c6.44-2.63,8.7,7.33,0,11.44L320.52,578.8c-5.53,2.39-9-5.6-.71-10.71Z" transform="translate(-0.48 3.27)" fill="#64a0db" fill-rule="evenodd"/><path d="M617.53,342c6.44-2.63,8.7,7.33,0,11.45L587.7,370.64c-5.53,2.4-9-5.6-.71-10.71Z" transform="translate(-0.48 3.27)" fill="#ccc" fill-rule="evenodd"/><path d="M617.53,376.63c6.44-2.62,8.7,7.33,0,11.45L587.7,405.29c-5.53,2.4-9-5.6-.71-10.7Z" transform="translate(-0.48 3.27)" fill="#ccc" fill-rule="evenodd"/><path d="M617.53,408.74c6.44-2.63,8.7,7.33,0,11.45L587.7,437.4c-5.53,2.39-9-5.6-.71-10.71Z" transform="translate(-0.48 3.27)" fill="#ccc" fill-rule="evenodd"/><path d="M686.24,305.65c6.45-2.63,8.7,7.33,0,11.44L656.41,334.3c-5.53,2.4-9-5.59-.71-10.7Z" transform="translate(-0.48 3.27)" fill="#ccc" fill-rule="evenodd"/><path d="M686.24,340.3c6.45-2.63,8.7,7.33,0,11.45L656.41,369c-5.53,2.39-9-5.6-.71-10.71Z" transform="translate(-0.48 3.27)" fill="#ccc" fill-rule="evenodd"/><path d="M686.24,372.41c6.45-2.63,8.7,7.33,0,11.44l-29.83,17.21c-5.53,2.4-9-5.59-.71-10.7Z" transform="translate(-0.48 3.27)" fill="#ccc" fill-rule="evenodd"/><path d="M753.13,270.65c6.44-2.63,8.7,7.33,0,11.45L723.3,299.31c-5.53,2.39-9-5.6-.71-10.71Z" transform="translate(-0.48 3.27)" fill="#ccc" fill-rule="evenodd"/><path d="M753.13,305.3c6.44-2.63,8.7,7.33,0,11.45L723.3,334c-5.53,2.4-9-5.6-.71-10.71Z" transform="translate(-0.48 3.27)" fill="#ccc" fill-rule="evenodd"/><path d="M753.13,337.41c6.44-2.63,8.7,7.33,0,11.45L723.3,366.07c-5.53,2.39-9-5.6-.71-10.71Z" transform="translate(-0.48 3.27)" fill="#ccc" fill-rule="evenodd"/><path d="M612.68,492c6.44-2.63,8.7,7.32,0,11.44l-29.83,17.21c-5.53,2.4-9-5.6-.71-10.7Z" transform="translate(-0.48 3.27)" fill="#b3b3b3" fill-rule="evenodd"/><path d="M692.13,446.45,784.77,393v71.93l-92.65,53.49v-72Zm16.42-8V455l14.29-8.25v-16.5l-14.29,8.25Zm15.17-8.76v16.5L738,438v-16.5l-14.29,8.25ZM738.89,421q0,8.25,0,16.5l14.3-8.25v-16.5L738.89,421Zm15.16-8.76v16.5l14.29-8.25V404l-14.29,8.25Zm15.17-8.75V420l14.29-8.26V395.21l-14.29,8.25Zm14.29,9.26L769.21,421v16.5l14.3-8.25v-16.5ZM768.34,438v-16.5l-14.29,8.26q0,8.25,0,16.5l14.3-8.26Zm-15.16,8.76v-16.5l-14.3,8.25V455l14.3-8.25ZM738,455.48V439l-14.29,8.25q0,8.25,0,16.5l14.3-8.26Zm-15.17,8.76v-16.5L708.55,456v16.5l14.29-8.25ZM707.68,473V456.5l-14.29,8.25v16.5L707.68,473ZM693.4,447.18q0,8.25,0,16.5l14.29-8.25v-16.5l-14.28,8.25Zm15.15,26.29V490l14.29-8.25v-16.5l-14.29,8.25Zm15.17-8.76v16.5L738,473V456.47l-14.29,8.24ZM738.89,456q0,8.25,0,16.5l14.3-8.25v-16.5L738.89,456Zm15.16-8.76v16.5l14.29-8.25V439l-14.29,8.25Zm15.17-8.75V455l14.29-8.25V430.2l-14.29,8.25Zm14.29,9.26L769.21,456v16.5l14.3-8.25v-16.5ZM768.34,473V456.47l-14.29,8.25q0,8.25,0,16.5l14.3-8.26Zm-15.16,8.76v-16.5l-14.3,8.25V490l14.3-8.25ZM738,490.48V474l-14.29,8.25q0,8.25,0,16.5l14.3-8.25Zm-15.17,8.75v-16.5L708.55,491v16.49l14.29-8.25ZM707.68,508v-16.5l-14.29,8.25v16.5L707.68,508ZM693.4,482.17q0,8.25,0,16.5l14.29-8.25v-16.5Z" transform="translate(-0.48 3.27)" fill-rule="evenodd"/><ellipse cx="945.89" cy="218.33" rx="47.99" ry="66.08" transform="translate(-25.12 242.85) rotate(-14.25)" fill="#b392e8"/><path d="M934.78,217c4.85-3.33,10.3-2.44,15.19,1.69h0c3.43,2.89,6.58,7.38,9.06,13.13l-1.66,7.4c-2.11-6.24-5.17-11.06-8.55-13.92-3.91-3.29-8.27-4-12.16-1.33s-6.55,8.21-7.72,15l-.06.35-3-7.32C927.64,225.26,930.67,219.85,934.78,217Z" transform="translate(-0.48 3.27)" fill="#fff" fill-rule="evenodd"/><path d="M929.58,197.83c7.52-5.16,16-3.78,23.55,2.61A47.88,47.88,0,0,1,963.26,213l-1.5,6.72A43.21,43.21,0,0,0,952,207.08c-6.6-5.57-14-6.77-20.51-2.27-4.48,3.08-8,8.43-10.42,15.17l-2.69-6.66C921.09,206.49,924.87,201.07,929.58,197.83Z" transform="translate(-0.48 3.27)" fill="#fff" fill-rule="evenodd"/><path d="M923.91,176.91c10.43-7.17,22.15-5.26,32.66,3.61a61.41,61.41,0,0,1,11.12,12.71l-1.47,6.54a56.77,56.77,0,0,0-10.79-12.61c-9.54-8-20.17-9.78-29.63-3.28-5.17,3.56-9.46,9.2-12.76,16.3l-2.63-6.49C914,186.42,918.5,180.62,923.91,176.91Z" transform="translate(-0.48 3.27)" fill="#fff" fill-rule="evenodd"/><path d="M940.1,236.64c4.24-2.92,9.54,1.55,11.82,10s.7,17.63-3.55,20.55-9.54-1.56-11.82-10S935.85,239.56,940.1,236.64Z" transform="translate(-0.48 3.27)" fill="#fff" fill-rule="evenodd"/><path d="M1610.21,176.58a3,3,0,0,0,0,6,3,3,0,0,0,0-6Z" transform="translate(-0.48 3.27)" fill="#98b6e3" fill-rule="evenodd"/></svg>